<svg width="50" height="50" viewBox="0 0 50 50" fill="none" xmlns="http://www.w3.org/2000/svg">
<g clip-path="url(#clip0_14_176)">
<path d="M49.5927 13.8672C49.4494 13.6636 49.2593 13.4975 49.0384 13.3828C48.8175 13.268 48.5722 13.2081 48.3233 13.2079H15.1624L12.6522 4.55166C11.6678 1.14307 9.32871 0.775097 8.36934 0.775097H1.67637C0.818506 0.775097 0.124756 1.46963 0.124756 2.32666C0.124756 3.18369 0.819287 3.87817 1.67632 3.87817H8.36851C8.58022 3.87817 9.22632 3.87817 9.66699 5.40083L18.3021 37.136C18.4896 37.8055 19.0998 38.268 19.7959 38.268H40.888C41.5428 38.268 42.1271 37.8578 42.3482 37.2414L49.7826 15.2844C49.9537 14.8086 49.8826 14.2789 49.5928 13.8672H49.5927ZM39.7961 35.1657H20.9735L16.0345 16.3118H46.1173L39.7961 35.1657ZM36.7188 41.4126C34.561 41.4126 32.8126 43.161 32.8126 45.3188C32.8126 47.4767 34.561 49.2251 36.7188 49.2251C38.8767 49.2251 40.6251 47.4767 40.6251 45.3188C40.6251 43.161 38.8767 41.4126 36.7188 41.4126ZM22.6563 41.4126C20.4985 41.4126 18.7501 43.161 18.7501 45.3188C18.7501 47.4767 20.4985 49.2251 22.6563 49.2251C24.8142 49.2251 26.5626 47.4767 26.5626 45.3188C26.5626 43.161 24.8142 41.4126 22.6563 41.4126Z" fill="#FFEDA8"/>
</g>
<defs>
<clipPath id="clip0_14_176">
<rect width="50" height="50" fill="white"/>
</clipPath>
</defs>
</svg>
