<svg width="50" height="50" viewBox="0 0 50 50" fill="none" xmlns="http://www.w3.org/2000/svg">
<g clip-path="url(#clip0_308_4)">
<path d="M25.6 0C33.4625 0 40.7425 3.4875 45.57 9.36C45.7075 9.52646 45.8102 9.71889 45.8718 9.92583C45.9335 10.1328 45.9528 10.35 45.9288 10.5646C45.9048 10.7792 45.8378 10.9867 45.732 11.1749C45.6261 11.3631 45.4834 11.5281 45.3125 11.66C44.9645 11.9328 44.524 12.0592 44.0843 12.0125C43.6446 11.9659 43.2405 11.7497 42.9575 11.41C40.8466 8.85306 38.1944 6.79657 35.1923 5.38892C32.1903 3.98127 28.9132 3.25756 25.5975 3.27C13.31 3.27 3.3475 13 3.3475 25C3.3475 37 13.31 46.73 25.5975 46.73C28.961 46.7428 32.2842 45.9983 35.3206 44.5515C38.357 43.1047 41.0287 40.9928 43.1375 38.3725C43.4157 38.0293 43.8166 37.8078 44.2553 37.7551C44.6939 37.7024 45.1359 37.8225 45.4875 38.09C45.6599 38.2197 45.8045 38.3827 45.9127 38.5694C46.0209 38.756 46.0905 38.9625 46.1173 39.1766C46.1441 39.3907 46.1277 39.608 46.0689 39.8156C46.01 40.0231 45.9101 40.2168 45.775 40.385C40.955 46.41 33.5775 50 25.6 50C11.4575 50 0 38.8075 0 25C0 11.1925 11.46 0 25.6 0ZM42.745 17.9L49.51 24.6675C50.165 25.32 50.1775 26.3675 49.54 27.0075L42.93 33.615C42.6163 33.9219 42.1936 34.0917 41.7548 34.087C41.316 34.0823 40.897 33.9036 40.59 33.59C40.4342 33.4381 40.3099 33.257 40.2242 33.057C40.1385 32.857 40.093 32.642 40.0905 32.4245C40.0879 32.2069 40.1283 31.9909 40.2093 31.789C40.2903 31.587 40.4103 31.403 40.5625 31.2475L44.43 27.38H18.655C18.4377 27.3826 18.2219 27.3424 18.0201 27.2617C17.8183 27.181 17.6344 27.0613 17.4788 26.9094C17.3233 26.7576 17.1992 26.5766 17.1136 26.3768C17.028 26.177 16.9826 25.9623 16.98 25.745C16.98 24.84 17.73 24.1075 18.655 24.1075H44.3275L40.4325 20.2125C40.1186 19.9058 39.9394 19.487 39.9342 19.0482C39.9291 18.6094 40.0984 18.1865 40.405 17.8725C40.719 17.5659 41.1419 17.3966 41.5807 17.4017C42.0195 17.4069 42.4383 17.5861 42.745 17.9Z" fill="#FFEDA8"/>
</g>
<defs>
<clipPath id="clip0_308_4">
<rect width="50" height="50" fill="white"/>
</clipPath>
</defs>
</svg>
