<svg width="50" height="50" viewBox="0 0 50 50" fill="none" xmlns="http://www.w3.org/2000/svg">
<path d="M25.15 25.15C23.0669 25.15 21.2836 24.4083 19.8002 22.9248C18.3167 21.4414 17.575 19.6581 17.575 17.575C17.575 15.4919 18.3167 13.7086 19.8002 12.2252C21.2836 10.7417 23.0669 10 25.15 10C27.2331 10 29.0164 10.7417 30.4998 12.2252C31.9833 13.7086 32.725 15.4919 32.725 17.575C32.725 19.6581 31.9833 21.4414 30.4998 22.9248C29.0164 24.4083 27.2331 25.15 25.15 25.15ZM13.7875 40.3C12.7459 40.3 11.8546 39.9295 11.1135 39.1884C10.3712 38.446 10 37.5541 10 36.5125V34.9975C10 33.9244 10.2765 32.9377 10.8295 32.0376C11.3812 31.1387 12.1147 30.4525 13.03 29.9791C14.9869 29.0006 16.9753 28.2665 18.9953 27.7766C21.0153 27.288 23.0669 27.0437 25.15 27.0437C27.2331 27.0437 29.2847 27.288 31.3047 27.7766C33.3247 28.2665 35.3131 29.0006 37.27 29.9791C38.1853 30.4525 38.9188 31.1387 39.4705 32.0376C40.0235 32.9377 40.3 33.9244 40.3 34.9975V36.5125C40.3 37.5541 39.9295 38.446 39.1884 39.1884C38.446 39.9295 37.5541 40.3 36.5125 40.3H13.7875Z" fill="#FFEDA8"/>
<rect x="0.5" y="0.5" width="49" height="49" rx="24.5" stroke="#FFEDA8"/>
</svg>
