<svg width="50" height="50" viewBox="0 0 50 50" fill="none" xmlns="http://www.w3.org/2000/svg">
<g clip-path="url(#clip0_14_237)">
<circle cx="25" cy="25" r="25" fill="#783A34"/>
<path d="M16.8519 12.4905C16.7412 12.3481 16.6015 12.2309 16.442 12.1467C16.2825 12.0624 16.107 12.0131 15.927 12.0019C15.747 11.9907 15.5667 12.018 15.398 12.0819C15.2294 12.1457 15.0762 12.2448 14.9488 12.3724L13.0101 14.3129C12.1045 15.2204 11.7708 16.5048 12.1664 17.6316C13.8083 22.2957 16.4793 26.5303 19.9811 30.0213C23.4721 33.5231 27.7067 36.1941 32.3707 37.8361C33.4976 38.2317 34.7819 37.898 35.6894 36.9924L37.6281 35.0537C37.7557 34.9262 37.8547 34.7731 37.9186 34.6045C37.9824 34.4358 38.0097 34.2555 37.9985 34.0755C37.9874 33.8955 37.938 33.7199 37.8538 33.5605C37.7695 33.401 37.6523 33.2613 37.51 33.1506L33.1845 29.7869C33.0324 29.669 32.8554 29.5871 32.6671 29.5474C32.4787 29.5078 32.2838 29.5115 32.097 29.5582L27.9909 30.5838C27.4428 30.7208 26.8686 30.7135 26.3241 30.5627C25.7797 30.4119 25.2836 30.1227 24.8841 29.7232L20.2793 25.1164C19.8795 24.7171 19.5899 24.2211 19.4387 23.6767C19.2876 23.1322 19.28 22.5579 19.4168 22.0096L20.4442 17.9035C20.4909 17.7167 20.4946 17.5218 20.455 17.3334C20.4154 17.145 20.3335 16.9681 20.2155 16.816L16.8519 12.4905ZM13.5332 10.9587C13.8613 10.6304 14.2555 10.3758 14.6896 10.2116C15.1236 10.0474 15.5877 9.97745 16.0508 10.0064C16.514 10.0353 16.9658 10.1624 17.3761 10.3793C17.7863 10.5961 18.1458 10.8978 18.4306 11.2643L21.7942 15.5879C22.4111 16.381 22.6286 17.4141 22.3848 18.3891L21.3592 22.4952C21.3062 22.7079 21.3091 22.9307 21.3675 23.1419C21.426 23.3532 21.5381 23.5457 21.693 23.7008L26.2997 28.3076C26.455 28.4628 26.6479 28.5751 26.8595 28.6335C27.0711 28.692 27.2942 28.6947 27.5071 28.6413L31.6114 27.6157C32.0925 27.4954 32.5947 27.4861 33.08 27.5884C33.5653 27.6907 34.0209 27.902 34.4126 28.2064L38.7362 31.57C40.2905 32.7794 40.433 35.0762 39.0418 36.4655L37.1031 38.4042C35.7156 39.7917 33.642 40.4011 31.7089 39.7205C26.7613 37.9796 22.2691 35.1471 18.5656 31.4332C14.8518 27.7301 12.0194 23.2386 10.2783 18.2916C9.59958 16.3604 10.2089 14.2848 11.5964 12.8974L13.5351 10.9587H13.5332Z" fill="#FFEDA8"/>
</g>
<defs>
<clipPath id="clip0_14_237">
<rect width="50" height="50" fill="white"/>
</clipPath>
</defs>
</svg>
