<svg width="50" height="50" viewBox="0 0 50 50" fill="none" xmlns="http://www.w3.org/2000/svg">
<g clip-path="url(#clip0_14_141)">
<circle cx="25" cy="25" r="25" fill="#783A34"/>
<path d="M13.2642 32V17.4545H19.0028C20.1013 17.4545 21.0388 17.651 21.8153 18.044C22.5966 18.4323 23.1908 18.9839 23.598 19.6989C24.0099 20.4091 24.2159 21.2448 24.2159 22.206C24.2159 23.1719 24.0076 24.0028 23.5909 24.6989C23.1742 25.3902 22.5705 25.9205 21.7798 26.2898C20.9938 26.6591 20.0421 26.8438 18.9247 26.8438H15.0824V24.3722H18.4276C19.0147 24.3722 19.5024 24.2917 19.8906 24.1307C20.2789 23.9697 20.5677 23.7282 20.7571 23.4062C20.9512 23.0843 21.0483 22.6842 21.0483 22.206C21.0483 21.723 20.9512 21.3158 20.7571 20.9844C20.5677 20.6529 20.2765 20.402 19.8835 20.2315C19.4953 20.0563 19.0052 19.9688 18.4134 19.9688H16.3395V32H13.2642ZM21.1193 25.3807L24.7344 32H21.3395L17.8026 25.3807H21.1193ZM35.3736 17.4545H38.4489V26.9006C38.4489 27.9612 38.1955 28.8892 37.6889 29.6847C37.187 30.4801 36.4839 31.1004 35.5795 31.5455C34.6752 31.9858 33.6217 32.206 32.419 32.206C31.2116 32.206 30.1558 31.9858 29.2514 31.5455C28.3471 31.1004 27.6439 30.4801 27.142 29.6847C26.6402 28.8892 26.3892 27.9612 26.3892 26.9006V17.4545H29.4645V26.6378C29.4645 27.1918 29.5852 27.6842 29.8267 28.1151C30.0729 28.5459 30.4186 28.8845 30.8636 29.1307C31.3087 29.3769 31.8272 29.5 32.419 29.5C33.0156 29.5 33.5341 29.3769 33.9744 29.1307C34.4195 28.8845 34.7628 28.5459 35.0043 28.1151C35.2505 27.6842 35.3736 27.1918 35.3736 26.6378V17.4545Z" fill="#FFEDA8"/>
</g>
<defs>
<clipPath id="clip0_14_141">
<rect width="50" height="50" fill="white"/>
</clipPath>
</defs>
</svg>
